<?xml version="1.0" encoding="utf-8"?>
<!-- Generator: Adobe Illustrator 24.3.0, SVG Export Plug-In . SVG Version: 6.00 Build 0)  -->
<svg version="1.1" id="Livello_1" xmlns="http://www.w3.org/2000/svg" xmlns:xlink="http://www.w3.org/1999/xlink" x="0px" y="0px"
	 viewBox="0 0 1080 1080" style="enable-background:new 0 0 1080 1080;" xml:space="preserve">
<style type="text/css">
	.st0{fill:#F26551;}
	.st1{fill:#FFFFFF;}
</style>
<g>
	<circle class="st0" cx="540" cy="540" r="533.5"/>
</g>
<g>
	<path class="st1" d="M296.2,708.4L143.9,599.5c-15.8-11.3-25.2-29.6-25.2-49.1v0c0-19,8.9-36.8,24.1-48.2l153.7-115.5
		c23.8-17.9,57.9-0.9,57.9,28.9v0c0,12-5.9,23.1-15.8,29.9L186.3,549c-0.4,0.3-0.6,0.7-0.6,1.2v0.4c0,0.5,0.3,1,0.7,1.2l150.9,95.7
		c10.6,6.7,17,18.4,17,31v0C354.3,708.4,320.5,725.7,296.2,708.4z"/>
	<path class="st1" d="M650.3,253L491.4,844.6c-3.9,14.6-17.2,24.8-32.3,24.8h0c-22,0-38-20.9-32.3-42.1l158.5-591.7
		c3.9-14.7,17.3-25,32.6-25h0C640,210.6,656.1,231.6,650.3,253z"/>
	<path class="st1" d="M936,594.6L782,703.8c-24.2,17.2-57.8-0.2-57.8-29.9v0c0-12.6,6.5-24.4,17.2-31.1l152.2-94.9
		c0.4-0.3,0.7-0.7,0.7-1.2l0,0c0-0.5-0.2-0.9-0.6-1.2L740.4,442.4c-10.1-6.8-16.2-18.2-16.2-30.5v0c0-30.2,34.4-47.5,58.7-29.4
		l154.3,115c15.2,11.3,24.2,29.2,24.2,48.1v0C961.3,565.1,951.9,583.4,936,594.6z"/>
</g>
</svg>
