<?xml version="1.0" encoding="utf-8"?>
<!-- Generator: Adobe Illustrator 24.3.0, SVG Export Plug-In . SVG Version: 6.00 Build 0)  -->
<svg version="1.1" id="Livello_1" xmlns="http://www.w3.org/2000/svg" xmlns:xlink="http://www.w3.org/1999/xlink" x="0px" y="0px"
	 viewBox="0 0 692.4 716.9" style="enable-background:new 0 0 692.4 716.9;" xml:space="preserve">
<style type="text/css">
	.st0{fill:#011533;}
	.st1{fill:#00E064;}
	.st2{fill:#00DC50;}
</style>
<g>
	<path class="st0" d="M674.3,359.2c-0.1,6.1-3.1,12.2-8.2,17.4c-36.7,36.6-73.3,73.3-109.9,109.9c-64,64-128,127.9-192,191.8
		c-10.7,10.7-26.1,10.9-36.9,0.1c-14.5-14.3-28.8-28.6-43.1-43c-9.5-9.6-9.6-25.6-0.1-35.2c28.1-28.2,56.2-56.2,84.4-84.4
		c26.8-26.8,53.6-53.7,80.4-80.6c18.9-18.9,37.8-37.9,57-56.7c13.5-13.3,13.4-28.4-0.1-41.7c-28.9-28.5-57.5-57.3-86.2-86
		c-37.1-37.1-74.2-74.2-111.2-111.2c-7.3-7.3-14.7-14.5-21.9-21.9c-10.5-10.9-10.3-26.4,0.3-37.1c13.9-14,27.8-27.9,41.7-41.7
		c11-10.9,26-11.2,36.9-0.5c23.3,22.9,46.3,46,69.3,69c24.8,24.8,49.6,49.7,74.4,74.6c33.3,33.3,66.7,66.6,100,99.9
		c18.9,18.8,37.7,37.7,56.6,56.5C671.1,343.9,674.4,350.2,674.3,359.2z"/>
	<path class="st1" d="M24,343.3c1.2-1.3,2.5-2.6,3.7-3.9c0.4-0.4,0.8-0.8,1.2-1.2l-0.1,0.2c0.4-0.4,0.8-0.8,1.2-1.1
		c1.2-1.3,2.5-2.5,3.7-3.8c0.4-0.4,0.8-0.8,1.2-1.2l-0.1,0.2c0.4-0.4,0.8-0.8,1.2-1.1c1.2-1.3,2.5-2.5,3.7-3.8
		c0.4-0.4,0.8-0.8,1.2-1.2l-0.1,0.2c0.4-0.4,0.8-0.8,1.2-1.1c1.2-1.3,2.5-2.5,3.7-3.8c0.4-0.4,0.8-0.8,1.2-1.2l-0.1,0.2
		c0.4-0.4,0.8-0.8,1.2-1.1c1.2-1.3,2.5-2.5,3.7-3.8c0.4-0.4,0.8-0.8,1.2-1.2l-0.1,0.2c0.4-0.4,0.8-0.8,1.2-1.1
		c1.2-1.3,2.5-2.5,3.7-3.8c0.4-0.4,0.8-0.9,1.2-1.3c1.6-1.6,3.2-3.1,4.8-4.7c0.4-0.4,0.8-0.9,1.2-1.3c1.6-1.6,3.2-3.1,4.8-4.7
		c0.4-0.4,0.8-0.9,1.2-1.3c1.6-1.6,3.2-3.1,4.8-4.7c0.4-0.4,0.8-0.9,1.2-1.3c1.6-1.6,3.2-3.1,4.8-4.7c0.4-0.4,0.8-0.9,1.2-1.3
		c1.6-1.6,3.2-3.1,4.8-4.7c0.4-0.4,0.8-0.9,1.2-1.3c1.6-1.6,3.2-3.1,4.8-4.7c0.4-0.4,0.8-0.9,1.2-1.3c1.6-1.6,3.2-3.1,4.8-4.7
		c0.4-0.4,0.8-0.8,1.2-1.3c1.6-1.6,3.2-3.2,4.8-4.7c0.4-0.4,0.8-0.8,1.2-1.3c1.6-1.6,3.2-3.2,4.8-4.7c0.4-0.4,0.8-0.8,1.2-1.3
		c3.6-3.6,7.2-7.2,10.8-10.7c0.4-0.4,0.8-0.8,1.2-1.3c1.6-1.6,3.2-3.2,4.8-4.7c0.4-0.4,0.8-0.8,1.2-1.3c1.6-1.6,3.2-3.2,4.8-4.7
		c0.4-0.4,0.8-0.8,1.2-1.3c1.6-1.6,3.2-3.2,4.8-4.7c0.4-0.4,0.8-0.8,1.2-1.3c1.6-1.6,3.2-3.2,4.8-4.7c0.4-0.4,0.8-0.8,1.2-1.2
		c1.6-1.6,3.2-3.2,4.8-4.8c0.4-0.4,0.8-0.8,1.2-1.2c1.6-1.6,3.2-3.2,4.8-4.8c0.4-0.4,0.8-0.8,1.2-1.2c1.6-1.6,3.2-3.2,4.8-4.8
		c0.4-0.4,0.8-0.8,1.2-1.2c1.6-1.6,3.2-3.2,4.8-4.8c0.4-0.4,0.8-0.8,1.2-1.2c1.6-1.6,3.2-3.2,4.8-4.8c0.4-0.4,0.8-0.8,1.2-1.2
		c1.6-1.6,3.2-3.2,4.8-4.8c0.4-0.4,0.8-0.8,1.2-1.2c15.9-15.9,31.9-31.8,47.8-47.8c0.4-0.4,0.8-0.7,1.2-1.1l-0.1,0.1
		c0.5,0,0.9-0.1,1.4-0.1c-0.1-0.3-0.2-0.5-0.3-0.8c9.6-8,23.8-8.1,32.8,0.6c15.4,14.9,30.6,30.1,45.6,45.5
		c9.3,9.6,8.7,25.3-0.8,34.8c-36,36-72,72-108,108c-6.2,6.2-12.5,12.4-18.7,18.7c-11.8,12-11.3,27.4,0.7,39.2
		c25.1,24.8,49.9,49.8,74.8,74.8c16.6,16.6,33.2,33.2,49.6,50c9.8,10.1,9.8,25.4,0,35.5c-14.3,14.6-28.8,29.2-43.4,43.5
		c-10.5,10.3-25.8,10.4-36.2,0c-25.2-24.9-50.2-50-75.3-75.1c-43.1-43.1-86.2-86.2-129.3-129.3c-10.1-10.1-11.4-22.4-3.7-34.3
		C23.4,344,23.7,343.7,24,343.3z"/>
	<path class="st2" d="M235,132.5c0.1,0.3,0.2,0.5,0.3,0.8c-0.5,0-0.9,0.1-1.4,0.1C234.3,133.1,234.6,132.8,235,132.5z"/>
	<path class="st2" d="M24,343.3c-0.3,0.4-0.7,0.7-1,1.1C23.4,344,23.7,343.7,24,343.3z"/>
	<path class="st2" d="M234,133.3c-0.4,0.4-0.8,0.7-1.2,1.1C233.2,134,233.6,133.7,234,133.3z"/>
	<path class="st2" d="M185,182.2c-0.4,0.4-0.8,0.8-1.2,1.2C184.2,183,184.6,182.6,185,182.2z"/>
	<path class="st2" d="M179,188.2c-0.4,0.4-0.8,0.8-1.2,1.2C178.2,189,178.6,188.6,179,188.2z"/>
	<path class="st2" d="M173,194.2c-0.4,0.4-0.8,0.8-1.2,1.2C172.2,195,172.6,194.6,173,194.2z"/>
	<path class="st2" d="M167,200.2c-0.4,0.4-0.8,0.8-1.2,1.2C166.2,201,166.6,200.6,167,200.2z"/>
	<path class="st2" d="M161,206.2c-0.4,0.4-0.8,0.8-1.2,1.2C160.2,207,160.6,206.6,161,206.2z"/>
	<path class="st2" d="M155,212.2c-0.4,0.4-0.8,0.8-1.2,1.2C154.2,213,154.6,212.6,155,212.2z"/>
	<path class="st2" d="M149,218.2c-0.4,0.4-0.8,0.8-1.2,1.2C148.2,219,148.6,218.6,149,218.2z"/>
	<path class="st2" d="M143,224.1c-0.4,0.4-0.8,0.8-1.2,1.3C142.2,225,142.6,224.6,143,224.1z"/>
	<path class="st2" d="M137,230.1c-0.4,0.4-0.8,0.8-1.2,1.3C136.2,231,136.6,230.6,137,230.1z"/>
	<path class="st2" d="M131,236.1c-0.4,0.4-0.8,0.8-1.2,1.3C130.2,237,130.6,236.6,131,236.1z"/>
	<path class="st2" d="M125,242.1c-0.4,0.4-0.8,0.8-1.2,1.3C124.2,243,124.6,242.6,125,242.1z"/>
	<path class="st2" d="M113,254.1c-0.4,0.4-0.8,0.8-1.2,1.3C112.2,255,112.6,254.6,113,254.1z"/>
	<path class="st2" d="M107,260.1c-0.4,0.4-0.8,0.8-1.2,1.3C106.2,261,106.6,260.6,107,260.1z"/>
	<path class="st2" d="M95,272.1c-0.4,0.4-0.8,0.9-1.2,1.3C94.2,273,94.6,272.5,95,272.1z"/>
	<path class="st2" d="M89,278.1c-0.4,0.4-0.8,0.9-1.2,1.3C88.2,279,88.6,278.5,89,278.1z"/>
	<path class="st2" d="M83,284.1c-0.4,0.4-0.8,0.9-1.2,1.3C82.2,285,82.6,284.5,83,284.1z"/>
	<path class="st2" d="M77,290.1c-0.4,0.4-0.8,0.9-1.2,1.3C76.2,291,76.6,290.5,77,290.1z"/>
	<path class="st2" d="M71,296.1c-0.4,0.4-0.8,0.9-1.2,1.3C70.2,297,70.6,296.5,71,296.1z"/>
	<path class="st2" d="M65,302.1c-0.4,0.4-0.8,0.9-1.2,1.3C64.2,303,64.6,302.5,65,302.1z"/>
	<path class="st2" d="M59,308.1c-0.4,0.4-0.8,0.9-1.2,1.3C58.2,309,58.6,308.5,59,308.1z"/>
	<path class="st2" d="M54,313.2c-0.4,0.4-0.8,0.8-1.2,1.1C53.2,314,53.6,313.6,54,313.2z"/>
	<path class="st2" d="M52.9,314.2c-0.4,0.4-0.8,0.8-1.2,1.2C52.2,315,52.5,314.6,52.9,314.2z"/>
	<path class="st2" d="M48,319.2c-0.4,0.4-0.8,0.8-1.2,1.1C47.2,320,47.6,319.6,48,319.2z"/>
	<path class="st2" d="M46.9,320.2c-0.4,0.4-0.8,0.8-1.2,1.2C46.2,321,46.5,320.6,46.9,320.2z"/>
	<path class="st2" d="M42,325.2c-0.4,0.4-0.8,0.8-1.2,1.1C41.2,326,41.6,325.6,42,325.2z"/>
	<path class="st2" d="M40.9,326.2c-0.4,0.4-0.8,0.8-1.2,1.2C40.2,327,40.5,326.6,40.9,326.2z"/>
	<path class="st2" d="M36,331.2c-0.4,0.4-0.8,0.8-1.2,1.1C35.2,332,35.6,331.6,36,331.2z"/>
	<path class="st2" d="M34.9,332.2c-0.4,0.4-0.8,0.8-1.2,1.2C34.2,333,34.5,332.6,34.9,332.2z"/>
	<path class="st2" d="M30,337.2c-0.4,0.4-0.8,0.8-1.2,1.1C29.2,338,29.6,337.6,30,337.2z"/>
	<path class="st2" d="M28.9,338.2c-0.4,0.4-0.8,0.8-1.2,1.2C28.2,339,28.5,338.6,28.9,338.2z"/>
	<path class="st2" d="M101,266.1c-0.4,0.4-0.8,0.8-1.2,1.3C100.2,267,100.6,266.6,101,266.1z"/>
</g>
</svg>
